<svg width="150" height="47" xmlns="http://www.w3.org/2000/svg"><defs><filter style="color-interpolation-filters:sRGB" id="a" x="-.013" y="-.051" width="1.026" height="1.101"><feGaussianBlur stdDeviation="100.212"/></filter></defs><path d="m117.987 43.606-.497-.014-.592-.06-.853-.128-.81-.19-.845-.273c-.242-.09-.684-.283-.985-.43l-.913-.499-.785-.543-.806-.667a11.205 11.205 0 0 1-.695-.701l-.486-.57a12.054 12.054 0 0 1-.46-.64l-.469-.753-.387-.77-.347-.844a11.523 11.523 0 0 1-.273-.896l-.174-.742-.082-.496-.995-8.395-1-8.72c-.033-.487-.03-.658.018-1.232l.118-1.036.159-.759.226-.792.288-.785.318-.702.326-.602.383-.607.48-.654.558-.654c.163-.177.458-.467.656-.643l.669-.556.613-.434.56-.346.513-.274.562-.258.733-.276.88-.258.74-.159 8.441-1.008 8.617-.998a8.02 8.02 0 0 1 .897-.017l.865.07.837.128.81.19.845.273c.242.09.684.284.984.431l.913.498.786.544.805.667c.242.223.474.457.696.7l.486.57c.1.124.306.413.46.641l.468.753.388.77.346.844c.082.225.205.628.274.895l.173.742.083.497.995 8.393.999 8.719c.034.487.03.658-.017 1.233l-.119 1.035-.158.76-.226.792-.288.785-.318.701-.326.603-.383.607-.48.654-.558.654c-.163.177-.458.467-.656.643l-.67.556-.612.434-.56.346-.514.274-.562.258-.733.276-.88.257-.74.16-8.329.996-8.537.993-.85.04z" fill="#f0f0f2" style="fill:#4b3484;fill-opacity:1;stroke-width:.899404"/><path d="M125.162 40.844c-5.784.003-10.006-.007-10.155-.024a9.807 9.807 0 0 1-1.313-.268 9.102 9.102 0 0 1-.657-.229c-.202-.08-.53-.23-.729-.334a9.062 9.062 0 0 1-.674-.393 9.202 9.202 0 0 1-.583-.425 10.375 10.375 0 0 1-.556-.492 8.66 8.66 0 0 1-.539-.577 9.646 9.646 0 0 1-.472-.625c-.12-.177-.29-.45-.38-.61a8.196 8.196 0 0 1-.294-.59 10.9 10.9 0 0 1-.254-.656 8.956 8.956 0 0 1-.205-.708 11.607 11.607 0 0 1-.14-.72c-.055-.348-.058-.905-.058-10.284l.057-10.284c.04-.241.086-.482.14-.72.047-.194.14-.515.208-.713.068-.2.19-.507.27-.686.08-.179.212-.441.292-.584.115-.198.236-.391.364-.58.12-.177.332-.457.472-.626.14-.168.383-.427.54-.576.156-.15.397-.364.535-.477.197-.155.4-.303.61-.442a8.788 8.788 0 0 1 1.574-.796 8.8 8.8 0 0 1 .737-.224c.23-.058.574-.132.769-.165.337-.057.782-.06 10.299-.06l10.299.06c.258.046.514.101.769.165.23.057.56.158.736.224a8.388 8.388 0 0 1 1.575.796c.209.14.412.287.61.442.138.113.379.328.535.477.157.15.4.41.539.576.14.168.353.45.472.625.12.177.29.45.38.61.106.192.204.389.294.59.072.166.187.46.254.656.068.195.16.513.205.708.055.238.101.479.14.72.055.348.058.905.058 10.284l-.057 10.284c-.04.241-.086.482-.14.72a8.982 8.982 0 0 1-.206.708c-.067.195-.181.491-.254.657-.09.2-.188.397-.294.59-.09.158-.26.432-.38.609a9.46 9.46 0 0 1-.472.625c-.14.168-.382.427-.539.576-.173.165-.352.324-.536.477-.197.155-.4.303-.609.442a8.796 8.796 0 0 1-1.573.795 8.771 8.771 0 0 1-.673.21c-.239.06-.48.115-.722.164l-.369.07z" fill="#fff" style="fill:#2e1b58;fill-opacity:1;stroke-width:.899404"/><path style="fill:#fff;fill-opacity:1;stroke-width:.00924653" d="M134.909 30.576a.325.325 0 0 1-.216-.177l-.025-.05v-2.873l.025-.05a.317.317 0 0 1 .158-.155l.063-.03h3.01l.063.03a.318.318 0 0 1 .158.154l.025.051v2.873l-.031.06a.319.319 0 0 1-.162.15l-.054.025-1.486.002c-1.157 0-1.495-.001-1.529-.01z"/><path style="fill:#fff;fill-opacity:1;stroke-width:.011189" d="M121.799 30.566a.529.529 0 0 1-.406-.43.526.526 0 0 1 .268-.536c.137-.073-.167-.068 4.152-.068 2.602 0 3.957.003 4.005.01.281.045.483.32.437.594a.526.526 0 0 1-.411.43c-.11.024-7.938.024-8.045 0zm-1.164-2.282a.529.529 0 0 1-.406-.43.526.526 0 0 1 .269-.537c.135-.072-.045-.068 2.898-.068 1.756 0 2.705.004 2.752.011.281.044.483.319.437.594a.526.526 0 0 1-.411.43c-.11.023-5.432.023-5.539 0zm6.747 0a.529.529 0 0 1-.406-.43.526.526 0 0 1 .269-.537c.129-.069.105-.068 1.36-.068.716 0 1.168.004 1.213.011.281.044.483.319.437.594a.526.526 0 0 1-.411.43c-.109.023-2.356.023-2.462 0z"/><path style="fill:#fff;fill-opacity:1;stroke-width:.010611" d="M124.38 33.057a1.306 1.306 0 0 0-.031-.072 1.087 1.087 0 0 1-.042-.106.94.94 0 0 0-.038-.098.29.29 0 0 1-.02-.059.041.041 0 0 0-.01-.024.522.522 0 0 1-.032-.08 1.601 1.601 0 0 0-.038-.1 1.017 1.017 0 0 1-.032-.085.89.89 0 0 0-.031-.085 1.01 1.01 0 0 1-.032-.085 1.011 1.011 0 0 0-.038-.098.295.295 0 0 1-.02-.058.914.914 0 0 1-.052-.135 1.897 1.897 0 0 0-.055-.146.358.358 0 0 1-.02-.055.146.146 0 0 0-.016-.04l-.016-.03 7.642-.003c5.073-.002 7.645-.006 7.652-.013a.047.047 0 0 1 .03-.01c.084 0 .316-.25.316-.34 0-.011.004-.023.01-.027.008-.004.011-1.262.011-3.74s-.004-3.736-.01-3.74c-.006-.004-.01-.016-.01-.027 0-.092-.233-.34-.32-.34-.01 0-.022-.005-.026-.01-.004-.007-3.083-.01-9.204-.01-8.746 0-9.198-.002-9.214-.02a.267.267 0 0 1-.034-.071.887.887 0 0 0-.032-.085 1.011 1.011 0 0 1-.032-.085.863.863 0 0 0-.031-.085 1.012 1.012 0 0 1-.032-.084.983.983 0 0 0-.038-.099.29.29 0 0 1-.02-.058.041.041 0 0 0-.01-.024.516.516 0 0 1-.032-.08 1.54 1.54 0 0 0-.038-.1 1.049 1.049 0 0 1-.032-.085.889.889 0 0 0-.031-.085 1.012 1.012 0 0 1-.032-.085.86.86 0 0 0-.032-.085 1.014 1.014 0 0 1-.032-.085.984.984 0 0 0-.038-.098.29.29 0 0 1-.02-.059.041.041 0 0 0-.01-.024.517.517 0 0 1-.032-.079 1.467 1.467 0 0 0-.038-.1 1.015 1.015 0 0 1-.031-.085.887.887 0 0 0-.032-.085 1.01 1.01 0 0 1-.032-.085.983.983 0 0 0-.038-.098.29.29 0 0 1-.02-.059.041.041 0 0 0-.01-.024.516.516 0 0 1-.032-.079 1.606 1.606 0 0 0-.038-.1 1.016 1.016 0 0 1-.031-.086 1.059 1.059 0 0 0-.036-.095.942.942 0 0 1-.034-.09.55.55 0 0 0-.028-.075l-.013-.026 9.679-.003c6.431-.002 9.683-.006 9.69-.013a.048.048 0 0 1 .029-.011c.036 0 .163-.082.217-.14.059-.064.12-.166.12-.2 0-.01.005-.022.011-.026.007-.004.01-.481.01-1.395 0-.915-.003-1.391-.01-1.396a.041.041 0 0 1-.01-.026c0-.092-.233-.34-.319-.34-.01 0-.022-.005-.026-.01-.004-.008-3.474-.011-10.373-.011h-10.367l-.012-.03-.025-.06a1.545 1.545 0 0 1-.031-.085.885.885 0 0 0-.032-.085 1.012 1.012 0 0 1-.032-.085.86.86 0 0 0-.032-.085 1.01 1.01 0 0 1-.032-.085.885.885 0 0 0-.031-.085 1.012 1.012 0 0 1-.032-.084.887.887 0 0 0-.032-.085 1.01 1.01 0 0 1-.032-.085 1.059 1.059 0 0 0-.036-.096.945.945 0 0 1-.033-.09.29.29 0 0 0-.024-.06c-.008-.012 2.201-.014 11.13-.012 10.642.003 11.143.004 11.203.022.24.072.415.264.457.501.023.128.023 15.704 0 15.832a.645.645 0 0 1-.457.5c-.06.019-.428.02-8.003.022-7.563.003-7.94.002-7.946-.015z"/><path style="fill:#fff;fill-opacity:1;stroke-width:.0110656" d="M109.214 33.066a77.597 77.597 0 0 0 .238-.63l.237-.63a559.115 559.115 0 0 1 .749-1.981 101.542 101.542 0 0 1 .312-.825 588.227 588.227 0 0 1 .533-1.41l.158-.421a1936.778 1936.778 0 0 0 1.164-3.076 345.634 345.634 0 0 1 .659-1.743 676.882 676.882 0 0 1 .47-1.245 801.466 801.466 0 0 0 .763-2.02 724.672 724.672 0 0 0 .718-1.897 694.086 694.086 0 0 0 .367-.971c.007-.018.08-.02 1.315-.02h1.307l.093.247.45 1.187a352.198 352.198 0 0 1 .647 1.71l.246.652a486.19 486.19 0 0 0 .694 1.831l.255.675a585.33 585.33 0 0 1 .819 2.164 637.87 637.87 0 0 1 .769 2.03 603.546 603.546 0 0 1 .741 1.959 602.046 602.046 0 0 1 .742 1.958 363.242 363.242 0 0 1 .509 1.345 9998.547 9998.547 0 0 1 .39 1.032l.034.086-1.523-.003-1.523-.003-.125-.354-.257-.73c-.074-.207-.187-.531-.253-.72a512.018 512.018 0 0 0-.912-2.595l-.468-1.339a68.54 68.54 0 0 1-.205-.592c-.047-.14-.166-.483-.265-.763-.174-.492-.278-.792-.531-1.516a182.11 182.11 0 0 0-.546-1.555 199.852 199.852 0 0 0-.744-2.124 81.461 81.461 0 0 0-.322-.927.258.258 0 0 0-.037-.08c-.009 0-.03.062-.271.752a3064.023 3064.023 0 0 1-.989 2.833c-.067.192-.18.515-.25.72a2488.21 2488.21 0 0 1-1.054 3.015 4557.268 4557.268 0 0 1-.988 2.832l-.25.714-.248.714c-.293.838-.598 1.714-.598 1.718 0 .002-.68.002-1.51.002s-1.51-.002-1.51-.006z"/><g style="fill:#000;fill-opacity:1;stroke:none;stroke-width:.855747;stroke-miterlimit:4;stroke-dasharray:none;stroke-opacity:1;paint-order:markers fill stroke;filter:url(#a)"><path d="M7350 5779c-345-38-722-138-1073-286-425-178-832-414-1532-888-176-120-412-278-525-353-701-464-1195-689-1635-747-229-30-338-16-485 61-184 96-315 265-365 468-36 149-36 376 0 517 55 214 201 398 394 498 115 59 199 82 327 88 227 11 411-63 573-231 52-54 69-66 95-66 49 0 80 38 73 88-12 91-112 256-231 380-133 139-285 226-476 275-114 29-372 31-500 4-487-102-857-351-1130-760-404-605-447-1368-114-2036 255-513 616-857 1206-1151 581-289 1285-480 2068-559 1196-122 2432 45 3580 484 741 284 1505 723 2124 1222l78 63 37-30c179-149 580-435 816-582 1688-1051 3732-1434 5625-1053 1041 210 1862 621 2283 1145 337 419 517 901 517 1387 0 524-202 1023-560 1383-227 229-445 360-741 445-464 134-846 58-1130-224-114-114-248-333-249-409 0-33 43-72 79-72 25 0 46 15 109 78 140 141 293 210 482 220 420 20 764-275 821-703 15-113 6-282-21-395-63-264-262-468-521-535-197-51-612 30-994 194-349 150-675 349-1540 936-786 533-1254 788-1770 965-395 134-717 190-1111 190-528 0-1029-96-1436-275-218-96-433-239-611-405l-87-82-93 88c-364 349-848 552-1530 645-174 23-678 35-827 18z" style="fill:#000;fill-opacity:1;stroke:none;stroke-width:.855747;stroke-miterlimit:4;stroke-dasharray:none;stroke-opacity:1;paint-order:markers fill stroke" transform="matrix(.0008 0 0 -.0008 108.952 29.154)"/></g><path d="M7350 5779c-345-38-722-138-1073-286-425-178-832-414-1532-888-176-120-412-278-525-353-701-464-1195-689-1635-747-229-30-338-16-485 61-184 96-315 265-365 468-36 149-36 376 0 517 55 214 201 398 394 498 115 59 199 82 327 88 227 11 411-63 573-231 52-54 69-66 95-66 49 0 80 38 73 88-12 91-112 256-231 380-133 139-285 226-476 275-114 29-372 31-500 4-487-102-857-351-1130-760-404-605-447-1368-114-2036 255-513 616-857 1206-1151 581-289 1285-480 2068-559 1196-122 2432 45 3580 484 741 284 1505 723 2124 1222l78 63 37-30c179-149 580-435 816-582 1688-1051 3732-1434 5625-1053 1041 210 1862 621 2283 1145 337 419 517 901 517 1387 0 524-202 1023-560 1383-227 229-445 360-741 445-464 134-846 58-1130-224-114-114-248-333-249-409 0-33 43-72 79-72 25 0 46 15 109 78 140 141 293 210 482 220 420 20 764-275 821-703 15-113 6-282-21-395-63-264-262-468-521-535-197-51-612 30-994 194-349 150-675 349-1540 936-786 533-1254 788-1770 965-395 134-717 190-1111 190-528 0-1029-96-1436-275-218-96-433-239-611-405l-87-82-93 88c-364 349-848 552-1530 645-174 23-678 35-827 18z" style="fill:#fff;fill-opacity:1;stroke:#fdfdfd;stroke-width:.855747;stroke-miterlimit:4;stroke-dasharray:none;stroke-opacity:1;paint-order:markers fill stroke" transform="matrix(.0008 0 0 -.0008 108.952 29.154)"/><path style="fill:#4b3484;fill-opacity:1;stroke-width:.032571" d="M59.932 36.68c-.465-.258-1.12-.719-1.424-.999-.155-.144-.155-.144-.118-.274.055-.196.233-.536.448-.855.384-.57.671-.814.922-.78.426.057 1.415.75 1.591 1.114.067.139.068.152.02.317-.064.213-.203.46-.473.842-.24.337-.63.746-.712.746-.031 0-.145-.05-.254-.11zm-7.44-2.18c-.753-.34-1.993-1.196-2.514-1.736l-.185-.19.26-.36c.143-.196.456-.65.694-1.009 1.215-1.822 2.034-3.416 2.656-5.166.255-.718.24-.706.705-.617.465.09 1.052.158 1.718.2.667.044 2.685.022 3.196-.033.488-.053 1.01-.135 1.061-.167.064-.04-.049-.474-.366-1.413-.14-.411-.247-.754-.24-.761.01-.01 2.629-.626 3.147-.74.08-.017.087-.007.153.22.105.362.198.855.255 1.351.065.558.047 1.894-.033 2.413-.124.813-.312 1.47-.575 2.017-.178.368-.119.324-.6.445-.562.141-1.901.335-2.834.41-.233.02-.87.044-1.417.054-.9.018-1.045.013-1.542-.051a9.934 9.934 0 0 1-.588-.086c-.026-.01-.093.125-.194.393-.178.47-.545 1.338-.875 2.069-.51 1.126-1.434 2.874-1.529 2.89-.024.003-.183-.057-.353-.134zm5.745-.546c-.456-.24-1.366-.892-1.618-1.16l-.091-.097.068-.182c.084-.224.416-.78.635-1.066.362-.47.58-.613.847-.553.19.043.416.157.749.377.354.236.682.51.796.667l.094.13.21-.322c.273-.416.602-.766.786-.837.166-.063.312-.035.621.121.53.267 1.255.876 1.302 1.093.047.219-.13.603-.53 1.149-.187.254-.6.7-.697.752-.042.023-.117 0-.283-.083-.314-.159-1.044-.652-1.349-.913-.14-.12-.26-.213-.268-.205-.007.007-.07.1-.138.206-.238.368-.831 1.024-.926 1.024-.009 0-.103-.045-.208-.1zm15.051-1.106c-1.197-.124-2.015-.486-2.679-1.186-.806-.85-1.18-1.975-1.18-3.545 0-1.196.228-2.463.7-3.882.222-.672.526-1.471.568-1.497.014-.009.646.182 1.404.423.758.241 1.382.439 1.387.439.005 0-.029.099-.075.22-.293.768-.526 1.643-.614 2.302-.076.57-.054 1.358.049 1.712.113.393.252.645.488.882.229.23.444.351.79.444.307.083.958.073 1.373-.021a6.698 6.698 0 0 0 2.49-1.157c.037-.035-.054-.095-.52-.344-1.258-.673-1.723-1.04-1.873-1.48-.075-.222-.044-.722.07-1.109.258-.883.79-1.706 1.675-2.592 1.257-1.257 2.722-2.07 4.357-2.42l.365-.077.034.16c.074.346.107 1.126.09 2.124-.01.558-.028 1.052-.04 1.1-.02.079-.055.093-.564.223-1.006.258-1.999.606-2.48.871-.379.208-.39.17.12.425 1.125.563 1.756 1.062 2.02 1.595.121.246.123.254.118.61-.01.702-.163 1.312-.5 1.988a5.371 5.371 0 0 1-1.038 1.456c-1.204 1.25-2.83 2.047-4.678 2.29-.48.062-1.462.087-1.857.046zm-57.7-3.32a39.43 39.43 0 0 1-3.544-.32l-.608-.089.01-.178c.03-.516.293-2.006.531-2.998l.13-.54.478.075c2.373.37 5.455.478 7.222.253 1.185-.15 1.887-.418 2.38-.909.312-.311.47-.593.582-1.036l.076-.3.814-.009.813-.009.02.123c.011.068.02.196.021.286.002.249.115.745.224.978.19.406.546.677 1.008.766.265.052 1.553.021 2.009-.047.447-.067 1.308-.247 2.28-.476.448-.105 1.048-.245 1.334-.31.287-.064.527-.123.534-.13.008-.008-.25-.144-.571-.302-1.103-.543-1.7-.68-3.463-.79-.331-.022-.62-.054-.643-.072-.057-.045-.053-.112.043-.677.135-.802.399-1.802.615-2.334.055-.136.056-.136.273-.16.612-.07 1.385 0 1.891.17.6.2.958.393 2.026 1.089.959.624 2.357 1.498 2.83 1.768.387.22.778.392.978.429l.115.02-.025.365c-.078 1.122-.31 2.083-.778 3.224l-.078.189-.488-.022c-1.061-.047-1.977.137-3.437.691-2.218.842-2.957 1.053-4.039 1.15-.485.044-1.295.044-1.613 0-.992-.139-1.758-.567-2.15-1.202-.102-.166-.136-.197-.213-.197-.067 0-.116.032-.183.12a2.36 2.36 0 0 1-.321.303c-.704.56-1.856.898-3.606 1.06-.637.06-2.67.087-3.476.047zm22.185-.078c-.037-.044-.038-.201-.008-.94.1-2.457.071-4.79-.11-8.851-.027-.6-.052-1.194-.057-1.319l-.008-.227 1.626-.09c.894-.05 1.63-.086 1.636-.08.042.041.192 3.138.243 5.005.037 1.345.022 4.61-.024 5.56l-.021.429-.183.08c-.482.214-1.59.41-2.626.464-.37.02-.43.016-.468-.03zm6.37.012c-.35-.031-1.082-.15-1.137-.183-.066-.04.036-1.108.175-1.836.081-.428.229-1.024.358-1.45l.1-.327.281.025c.7.061 1.88.087 2.657.057.447-.017.82-.039.829-.048.027-.027-.175-.507-.452-1.074a15.153 15.153 0 0 0-1.6-2.544l-.183-.23 1.38-1.17a81.136 81.136 0 0 1 1.408-1.179c.035-.011.138.143.486.726.843 1.412 1.44 2.91 1.684 4.234.12.65.159 1.178.14 1.916a7.091 7.091 0 0 1-.34 2.112c-.082.275-.087.283-.218.333-.585.223-1.801.469-2.92.59-.552.06-2.18.09-2.647.048zm52.57-.006c-.057-.043-.058-.077-.017-.76.03-.48.043-1.458.042-2.979a104.611 104.611 0 0 0-.129-5.537l-.068-1.548-.022-.521 1.622-.09c.892-.049 1.63-.081 1.639-.072.027.028.126 1.701.208 3.534.047 1.066.058 6.384.013 7.046l-.027.418-.152.065c-.523.224-1.577.41-2.643.468-.322.017-.42.012-.466-.024zm-9.582-.05a17.35 17.35 0 0 1-1.725-.22c-.428-.086-1.094-.292-1.13-.35-.083-.134-.187-2.034-.256-4.666-.02-.735-.063-2.332-.099-3.55a363.889 363.889 0 0 1-.063-2.363v-.147l1.617-.089a63.12 63.12 0 0 1 1.628-.079c.015.016.104 1.723.143 2.775.028.752.042 4.043.02 4.704-.005.134.003.146.093.174.054.016.356.038.672.047l.573.018.023-.224c.078-.753.405-1.673.81-2.276.413-.615.921-1.08 1.458-1.333.406-.192.602-.23 1.154-.228.439.002.515.011.75.089.143.047.355.142.47.21.418.242.883.786 1.146 1.336.707 1.481.565 3.68-.341 5.31l-.168.302-.31.096c-1.064.329-2.865.495-5.211.482a52.545 52.545 0 0 1-1.254-.017zm5.472-3.82c.161-.019.388-.05.504-.07l.21-.036-.148-.134c-.436-.392-1.268-.7-1.79-.663-.396.028-.737.25-.807.523-.028.11-.025.145.017.192.07.076.28.152.516.186.28.04 1.153.04 1.498.002zm-76.494-1.508c-.568-.324-1.107-.707-1.424-1.01-.112-.107-.204-.212-.204-.233 0-.02.066-.174.147-.34.3-.616.816-1.294 1.08-1.42.156-.074.339-.051.611.076.418.195 1.06.684 1.257.956l.089.123.214-.335c.254-.396.559-.74.727-.82.241-.114.558-.006 1.134.388.306.208.657.517.772.679.147.206.052.531-.314 1.067-.34.5-.796 1.01-.9 1.01-.05 0-.464-.227-.76-.417a6.64 6.64 0 0 1-.9-.68l-.183-.174-.122.197c-.237.384-.842 1.074-.94 1.073-.022 0-.15-.063-.284-.14zm73.916-3.863c-.492-.268-1.338-.875-1.589-1.14l-.096-.1.077-.187c.232-.572.86-1.443 1.147-1.592.126-.065.32-.056.534.024.29.108.845.497 1.169.819.16.16.297.276.303.258.034-.103.433-.66.601-.84.24-.256.33-.306.543-.306.128 0 .221.03.436.14.5.257 1.097.73 1.247.985.095.162.087.276-.035.552-.166.372-.806 1.227-1.07 1.428l-.12.091-.252-.135a9.46 9.46 0 0 1-1.334-.909l-.267-.232-.048.093c-.131.253-.912 1.18-.993 1.178-.011 0-.125-.057-.253-.127zm-59.372-1.04c-.544-.29-1.257-.796-1.56-1.106-.148-.153-.157-.171-.136-.285.03-.16.326-.729.54-1.038.229-.33.53-.653.705-.757a.406.406 0 0 1 .317-.067c.36.037.983.406 1.458.863.3.289.386.423.385.599-.002.238-.297.763-.754 1.336-.235.296-.559.614-.624.612-.02 0-.17-.07-.331-.157zm64.489-1.983a3.486 3.486 0 0 1-.231-.97c-.034-.551.113-.978.468-1.354.389-.413.85-.572 1.568-.543.416.017.6.05 1.65.302.971.232 1.752.172 2.085-.161.073-.074.11-.084.307-.084h.224l.068.181c.102.274.13.428.132.716.002.48-.162.887-.487 1.216-.457.462-1.103.588-2.183.427-1.498-.224-1.584-.234-1.857-.219-.423.023-.603.136-.738.465l-.06.145h-.895l-.051-.121z"/></svg>